<mxfile host="app.diagrams.net" modified="2021-10-06T12:31:15.519Z" agent="5.0 (Windows)" etag="OOAsw7HtBbFF5dT0D33L" version="15.4.3" type="github">
  <diagram id="zwh70mF0vbP2QziEimv8" name="Page-1">
    <mxGraphModel dx="1102" dy="572" grid="1" gridSize="10" guides="1" tooltips="1" connect="1" arrows="1" fold="1" page="1" pageScale="1" pageWidth="827" pageHeight="1169" math="0" shadow="0">
      <root>
        <mxCell id="0" />
        <mxCell id="1" parent="0" />
        <mxCell id="ZgkswLmUcxT2PuR4AGH9-2" value="Compétence" style="rounded=0;whiteSpace=wrap;html=1;fillColor=#d5e8d4;strokeColor=#82b366;" vertex="1" parent="1">
          <mxGeometry x="480" y="210" width="120" height="60" as="geometry" />
        </mxCell>
        <mxCell id="ZgkswLmUcxT2PuR4AGH9-3" value="expérience" style="rounded=0;whiteSpace=wrap;html=1;fillColor=#d5e8d4;strokeColor=#82b366;" vertex="1" parent="1">
          <mxGeometry x="480" y="280" width="120" height="60" as="geometry" />
        </mxCell>
        <mxCell id="ZgkswLmUcxT2PuR4AGH9-4" value="recommandations" style="rounded=0;whiteSpace=wrap;html=1;fillColor=#d5e8d4;strokeColor=#82b366;" vertex="1" parent="1">
          <mxGeometry x="480" y="490" width="120" height="60" as="geometry" />
        </mxCell>
        <mxCell id="ZgkswLmUcxT2PuR4AGH9-5" value="diplome" style="rounded=0;whiteSpace=wrap;html=1;fillColor=#d5e8d4;strokeColor=#82b366;" vertex="1" parent="1">
          <mxGeometry x="480" y="350" width="120" height="60" as="geometry" />
        </mxCell>
        <mxCell id="ZgkswLmUcxT2PuR4AGH9-7" value="savoir-etre" style="rounded=1;whiteSpace=wrap;html=1;fillColor=#f8cecc;strokeColor=#b85450;" vertex="1" parent="1">
          <mxGeometry x="280" y="410" width="120" height="60" as="geometry" />
        </mxCell>
        <mxCell id="ZgkswLmUcxT2PuR4AGH9-14" value="" style="edgeStyle=segmentEdgeStyle;endArrow=classic;html=1;rounded=0;startArrow=none;" edge="1" parent="1" source="ZgkswLmUcxT2PuR4AGH9-6" target="ZgkswLmUcxT2PuR4AGH9-2">
          <mxGeometry width="50" height="50" relative="1" as="geometry">
            <mxPoint x="140" y="250" as="sourcePoint" />
            <mxPoint x="380" y="400" as="targetPoint" />
            <Array as="points">
              <mxPoint x="270" y="220" />
              <mxPoint x="270" y="220" />
            </Array>
          </mxGeometry>
        </mxCell>
        <mxCell id="ZgkswLmUcxT2PuR4AGH9-15" value="Contact" style="rounded=0;whiteSpace=wrap;html=1;fillColor=#d5e8d4;strokeColor=#82b366;" vertex="1" parent="1">
          <mxGeometry x="480" y="70" width="120" height="60" as="geometry" />
        </mxCell>
        <mxCell id="ZgkswLmUcxT2PuR4AGH9-16" value="" style="edgeStyle=segmentEdgeStyle;endArrow=classic;html=1;rounded=0;" edge="1" parent="1" target="ZgkswLmUcxT2PuR4AGH9-15">
          <mxGeometry width="50" height="50" relative="1" as="geometry">
            <mxPoint x="180" y="310" as="sourcePoint" />
            <mxPoint x="370" y="100" as="targetPoint" />
            <Array as="points">
              <mxPoint x="180" y="100" />
              <mxPoint x="370" y="100" />
            </Array>
          </mxGeometry>
        </mxCell>
        <mxCell id="ZgkswLmUcxT2PuR4AGH9-26" style="edgeStyle=orthogonalEdgeStyle;rounded=0;orthogonalLoop=1;jettySize=auto;html=1;" edge="1" parent="1" source="ZgkswLmUcxT2PuR4AGH9-6" target="ZgkswLmUcxT2PuR4AGH9-27">
          <mxGeometry relative="1" as="geometry">
            <mxPoint x="620" y="210" as="targetPoint" />
          </mxGeometry>
        </mxCell>
        <mxCell id="ZgkswLmUcxT2PuR4AGH9-6" value="savoir-faire" style="rounded=1;whiteSpace=wrap;html=1;fillColor=#f8cecc;strokeColor=#b85450;" vertex="1" parent="1">
          <mxGeometry x="270" y="180" width="120" height="60" as="geometry" />
        </mxCell>
        <mxCell id="ZgkswLmUcxT2PuR4AGH9-18" value="" style="edgeStyle=segmentEdgeStyle;endArrow=none;html=1;rounded=0;" edge="1" parent="1" source="ZgkswLmUcxT2PuR4AGH9-30" target="ZgkswLmUcxT2PuR4AGH9-6">
          <mxGeometry width="50" height="50" relative="1" as="geometry">
            <mxPoint x="180" y="310" as="sourcePoint" />
            <mxPoint x="310" y="220" as="targetPoint" />
            <Array as="points">
              <mxPoint x="180" y="270" />
              <mxPoint x="320" y="270" />
            </Array>
          </mxGeometry>
        </mxCell>
        <mxCell id="ZgkswLmUcxT2PuR4AGH9-28" style="edgeStyle=orthogonalEdgeStyle;rounded=0;orthogonalLoop=1;jettySize=auto;html=1;" edge="1" parent="1" source="ZgkswLmUcxT2PuR4AGH9-8" target="ZgkswLmUcxT2PuR4AGH9-3">
          <mxGeometry relative="1" as="geometry" />
        </mxCell>
        <mxCell id="ZgkswLmUcxT2PuR4AGH9-19" value="valeurs" style="rounded=0;whiteSpace=wrap;html=1;fillColor=#d5e8d4;strokeColor=#82b366;" vertex="1" parent="1">
          <mxGeometry x="480" y="420" width="120" height="60" as="geometry" />
        </mxCell>
        <mxCell id="ZgkswLmUcxT2PuR4AGH9-27" value="Portfolio" style="rounded=0;whiteSpace=wrap;html=1;fillColor=#d5e8d4;strokeColor=#82b366;" vertex="1" parent="1">
          <mxGeometry x="480" y="140" width="120" height="60" as="geometry" />
        </mxCell>
        <mxCell id="ZgkswLmUcxT2PuR4AGH9-29" value="" style="edgeStyle=elbowEdgeStyle;elbow=horizontal;endArrow=classic;html=1;rounded=0;entryX=0;entryY=0.5;entryDx=0;entryDy=0;exitX=0.5;exitY=1;exitDx=0;exitDy=0;" edge="1" parent="1" source="ZgkswLmUcxT2PuR4AGH9-7" target="ZgkswLmUcxT2PuR4AGH9-4">
          <mxGeometry width="50" height="50" relative="1" as="geometry">
            <mxPoint x="330" y="480" as="sourcePoint" />
            <mxPoint x="380" y="430" as="targetPoint" />
            <Array as="points">
              <mxPoint x="340" y="510" />
            </Array>
          </mxGeometry>
        </mxCell>
        <mxCell id="ZgkswLmUcxT2PuR4AGH9-35" style="edgeStyle=orthogonalEdgeStyle;rounded=0;orthogonalLoop=1;jettySize=auto;html=1;" edge="1" parent="1" source="ZgkswLmUcxT2PuR4AGH9-30" target="ZgkswLmUcxT2PuR4AGH9-7">
          <mxGeometry relative="1" as="geometry">
            <Array as="points">
              <mxPoint x="220" y="440" />
            </Array>
          </mxGeometry>
        </mxCell>
        <mxCell id="ZgkswLmUcxT2PuR4AGH9-38" value="" style="edgeStyle=orthogonalEdgeStyle;rounded=0;orthogonalLoop=1;jettySize=auto;html=1;" edge="1" parent="1" source="ZgkswLmUcxT2PuR4AGH9-30" target="ZgkswLmUcxT2PuR4AGH9-8">
          <mxGeometry relative="1" as="geometry" />
        </mxCell>
        <mxCell id="ZgkswLmUcxT2PuR4AGH9-30" value="Moi" style="ellipse;shape=doubleEllipse;whiteSpace=wrap;html=1;fillColor=none;strokeColor=default;" vertex="1" parent="1">
          <mxGeometry x="150" y="320" width="100" height="60" as="geometry" />
        </mxCell>
        <mxCell id="ZgkswLmUcxT2PuR4AGH9-8" value="savoirs" style="rounded=1;whiteSpace=wrap;html=1;fillColor=#f8cecc;strokeColor=#b85450;" vertex="1" parent="1">
          <mxGeometry x="280" y="340" width="120" height="50" as="geometry" />
        </mxCell>
      </root>
    </mxGraphModel>
  </diagram>
</mxfile>
